<svg viewBox="0 0 16 16" xmlns="http://www.w3.org/2000/svg" width="16" height="16">
<path d="m15.9786667 7.46933333c-.26-3.996-3.452-7.188-7.44800003-7.45333333v-.016h-1.06133334v.016c-3.996.26533333-7.188 3.45733333-7.45333333 7.45333333h-.016v1.06133334h.016c.26533333 3.99600003 3.45733333 7.18800003 7.45333333 7.44800003v.0213333h1.06133334v-.0213333c3.99600003-.26 7.18800003-3.452 7.44800003-7.44800003h.0213333v-1.06133334zm-10.96800003-5.724c-.516.68133334-.948 1.54133334-1.256 2.52h-1.59866667c.69333333-1.08266666 1.68266667-1.96266666 2.85466667-2.52zm-3.412 3.588h1.87466666c-.14533333.672-.23333333 1.39066667-.26533333 2.136h-2.12c.05733333-.756.23466667-1.46933333.51066667-2.136zm-.51066667 3.19733334h2.12c.032.74533333.12 1.464.26533333 2.13600003h-1.87466666c-.276-.6666667-.45333334-1.38000003-.51066667-2.13600003zm1.068 3.20400003h1.59333333c.31333334.9786666.74 1.8386666 1.26133334 2.52-1.172-.5573334-2.16133334-1.4373334-2.85466667-2.52zm5.31333333 3.1293333c-1.1-.2906667-2.04266666-1.468-2.61466666-3.1293333h2.61466666zm0-4.1973333h-2.91733333c-.15066667-.6666667-.24533333-1.38000003-.276-2.13600003h3.19333333zm0-3.19733337h-3.19333333c.03066667-.756.12533333-1.46933333.276-2.136h2.91733333zm0-3.204h-2.61466666c.572-1.66133333 1.51466666-2.83866666 2.61466666-3.12933333zm6.37466667 0h-1.5933333c-.3133334-.97866666-.74-1.83866666-1.2613334-2.52 1.172.55733334 2.1613334 1.43733334 2.8546667 2.52zm-5.31333333-3.12933333c1.1.29066667 2.04266663 1.468 2.61466663 3.12933333h-2.61466663zm0 4.19733333h2.91733333c.1506667.66666667.24 1.38.276 2.136h-3.19333333zm0 3.19733334h3.19333333c-.0306667.756-.1253333 1.46933333-.276 2.13600003h-2.91733333zm0 6.33333333v-3.1293333h2.61466663c-.572 1.6613333-1.51466663 2.8386666-2.61466663 3.1293333zm2.45866663-.6093333c.516-.6866667.948-1.5413334 1.2613334-2.52h1.5933333c-.6933333 1.0826666-1.6826667 1.9626666-2.8546667 2.52zm3.412-3.588h-1.8746666c.1453333-.67200003.2333333-1.3906667.2653333-2.13600003h2.12c-.0573333.756-.2346667 1.46933333-.5106667 2.13600003zm-1.6093333-3.19733337c-.032-.74533333-.12-1.464-.2653333-2.136h1.8746666c.276.66666667.4533334 1.38.5106667 2.136z" fill-rule="evenodd"></path>
</svg>