<?xml version="1.0" encoding="UTF-8"?>
<svg id="Lockup" xmlns="http://www.w3.org/2000/svg" viewBox="0 0 323.03 106.04">
  <defs>
    <style>
      .cls-1, .cls-2, .cls-3, .cls-4, .cls-5, .cls-6, .cls-7, .cls-8, .cls-9, .cls-10 {
        stroke-width: 0px;
      }

      .cls-2 {
        fill: #53575b;
      }

      .cls-3 {
        fill: #e02826;
      }

      .cls-4 {
        fill: #ad1f31;
      }

      .cls-5 {
        fill: #00a651;
      }

      .cls-6 {
        fill: #fff;
      }

      .cls-7 {
        fill: #fcb131;
      }

      .cls-8 {
        fill: #ee334e;
      }

      .cls-9 {
        fill: #002b43;
      }

      .cls-10 {
        fill: #0081c8;
      }
    </style>
  </defs>
  <g id="Proud_Partner" data-name="Proud Partner">
    <path class="cls-2" d="M3.36,95.69c1.84,0,2.75.91,2.75,2.36v.44c0,1.5-.92,2.39-2.77,2.39H1.1v3.18H0v-8.37h3.36ZM1.1,99.97h2.11c1.3,0,1.8-.57,1.8-1.51v-.36c0-.92-.51-1.5-1.8-1.5H1.1v3.37Z"/>
    <path class="cls-2" d="M8.13,98.12l.09,1.51c.36-.85,1-1.6,2.11-1.6.16,0,.3.01.46.04v1.02c-.16-.03-.3-.05-.51-.05-1.09,0-1.97.87-1.97,1.85v3.18h-1.05v-5.95h.87Z"/>
    <path class="cls-2" d="M16.76,100.83v.54c0,1.7-1.12,2.88-2.81,2.88s-2.81-1.18-2.81-2.87v-.55c0-1.7,1.07-2.9,2.82-2.9s2.8,1.19,2.8,2.9ZM12.17,100.73v.73c0,1.12.7,1.92,1.77,1.92s1.77-.8,1.77-1.92v-.73c0-1.11-.66-1.95-1.77-1.95s-1.77.84-1.77,1.95Z"/>
    <path class="cls-2" d="M19.18,98.12v3.9c0,.78.45,1.31,1.26,1.31,1.05,0,1.85-.91,1.85-1.71v-3.49h1.04v5.95h-.87l-.1-1.24c-.54.84-1.22,1.38-2.26,1.38-1.21,0-1.96-.8-1.96-2.04v-4.05h1.05Z"/>
    <path class="cls-2" d="M30.29,95.37v8.7h-.87l-.09-1.23c-.44.74-1.06,1.38-2.21,1.38-1.49,0-2.4-1.19-2.4-2.77v-.7c0-1.58.95-2.78,2.42-2.78,1.11,0,1.7.59,2.1,1.21v-3.81h1.05ZM25.75,100.77v.64c0,1.11.6,1.97,1.66,1.97.96,0,1.84-.85,1.84-2.05v-.49c0-1.19-.87-2.05-1.84-2.05-1.06,0-1.66.87-1.66,1.97Z"/>
    <path class="cls-2" d="M38.4,95.69c1.84,0,2.75.91,2.75,2.36v.44c0,1.5-.92,2.39-2.77,2.39h-2.24v3.18h-1.1v-8.37h3.36ZM36.14,99.97h2.11c1.3,0,1.8-.57,1.8-1.51v-.36c0-.92-.51-1.5-1.8-1.5h-2.11v3.37Z"/>
    <path class="cls-2" d="M43.51,104.18c-1.1,0-1.74-.58-1.74-1.58,0-.65.26-1.14.96-1.5.57-.29,1.5-.49,3.04-.59v-.38c0-.85-.44-1.32-1.39-1.32-.89,0-1.44.43-1.44,1.14v.09h-.95v-.13c0-1.08.79-1.96,2.41-1.96s2.37.8,2.37,2.19v2.43c0,.7.15.82.75.83v.7h-.4c-.77,0-1.24-.23-1.34-1.14-.51.77-1.25,1.22-2.29,1.22ZM43.81,103.42c1,0,1.96-.82,1.96-1.6v-.69c-1.16.09-1.92.23-2.36.45-.47.24-.61.54-.61.94,0,.55.3.89,1.01.89Z"/>
    <path class="cls-2" d="M49.57,98.12l.09,1.51c.36-.85,1-1.6,2.11-1.6.16,0,.3.01.46.04v1.02c-.16-.03-.3-.05-.51-.05-1.09,0-1.97.87-1.97,1.85v3.18h-1.05v-5.95h.87Z"/>
    <path class="cls-2" d="M54.04,98.12v-1.31l1.04-.29v1.6h1.92v.82h-1.92v3.09c0,.94.31,1.22,1.19,1.22h.41v.83h-.64c-1.35,0-2-.53-2-1.86v-3.28h-1.07v-.82h1.07Z"/>
    <path class="cls-2" d="M58.94,98.12l.1,1.24c.55-.84,1.22-1.38,2.27-1.38,1.2,0,1.95.79,1.95,2.04v4.05h-1.05v-3.9c0-.78-.44-1.31-1.25-1.31-1.05,0-1.85.89-1.85,1.71v3.49h-1.05v-5.95h.87Z"/>
    <path class="cls-2" d="M67.45,104.24c-1.94,0-2.82-1.22-2.82-2.88v-.45c0-1.67,1-2.97,2.74-2.97s2.62,1.27,2.62,2.9v.47h-4.36v.14c0,1.11.51,1.94,1.85,1.94,1.01,0,1.56-.53,1.56-1.16v-.04h.94v.08c0,1.13-.96,1.97-2.52,1.97ZM65.63,100.66h3.37c-.04-1.09-.51-1.87-1.65-1.87-1.07,0-1.67.77-1.72,1.87Z"/>
    <path class="cls-2" d="M72.29,98.12l.09,1.51c.36-.85,1-1.6,2.11-1.6.16,0,.3.01.46.04v1.02c-.16-.03-.3-.05-.51-.05-1.09,0-1.97.87-1.97,1.85v3.18h-1.05v-5.95h.87Z"/>
    <path class="cls-2" d="M83.3,100.83v.54c0,1.7-1.12,2.88-2.81,2.88s-2.81-1.18-2.81-2.87v-.55c0-1.7,1.07-2.9,2.82-2.9s2.8,1.19,2.8,2.9ZM78.71,100.73v.73c0,1.12.7,1.92,1.77,1.92s1.77-.8,1.77-1.92v-.73c0-1.11-.66-1.95-1.77-1.95s-1.77.84-1.77,1.95Z"/>
    <path class="cls-2" d="M87.66,96.18h-.5c-.94,0-1.25.39-1.25,1.09v.84h1.71v.82h-1.71v5.13h-1.04v-5.13h-1.1v-.82h1.1v-.85c0-1.17.62-1.9,2.1-1.9h.69v.82Z"/>
    <path class="cls-2" d="M91.28,98.12v-1.31l1.04-.29v1.6h1.92v.82h-1.92v3.09c0,.94.31,1.22,1.19,1.22h.41v.83h-.64c-1.35,0-2-.53-2-1.86v-3.28h-1.07v-.82h1.07Z"/>
    <path class="cls-2" d="M96.35,95.37v3.88c.54-.78,1.2-1.27,2.2-1.27,1.2,0,1.95.79,1.95,2.04v4.05h-1.05v-3.9c0-.78-.44-1.31-1.25-1.31-1.05,0-1.85.89-1.85,1.71v3.49h-1.05v-8.7h1.05Z"/>
    <path class="cls-2" d="M104.69,104.24c-1.94,0-2.82-1.22-2.82-2.88v-.45c0-1.67,1-2.97,2.74-2.97s2.62,1.27,2.62,2.9v.47h-4.36v.14c0,1.11.51,1.94,1.85,1.94,1.01,0,1.56-.53,1.56-1.16v-.04h.94v.08c0,1.13-.96,1.97-2.52,1.97ZM102.86,100.66h3.37c-.04-1.09-.51-1.87-1.65-1.87-1.07,0-1.67.77-1.72,1.87Z"/>
    <path class="cls-2" d="M112.97,95.69v5.28c0,1.5.82,2.3,2.22,2.3s2.24-.8,2.24-2.3v-5.28h1.07v5.28c0,2.09-1.22,3.27-3.34,3.27s-3.31-1.18-3.31-3.27v-5.28h1.11Z"/>
    <path class="cls-2" d="M120.96,102.67v1.4h-1.26v-1.4h1.26Z"/>
    <path class="cls-2" d="M128.48,98.03v.26h-1.11v-.23c0-.84-.54-1.63-2.1-1.63-1.21,0-1.97.58-1.97,1.41,0,.88.6,1.13,2.27,1.53,2.14.5,3.01,1.02,3.01,2.44,0,1.53-1.31,2.41-3.17,2.41-2.34,0-3.37-1.09-3.37-2.59v-.31h1.11v.24c0,1.06.7,1.76,2.3,1.76,1.21,0,2.02-.52,2.02-1.43s-.57-1.19-2.34-1.62c-2.02-.45-2.95-.96-2.95-2.36s1.22-2.38,3.12-2.38c2.25,0,3.17,1.14,3.17,2.5Z"/>
    <path class="cls-2" d="M130.92,102.67v1.4h-1.26v-1.4h1.26Z"/>
    <path class="cls-2" d="M141.85,99.41v.93c0,2.43-1.41,3.91-3.74,3.91s-3.72-1.48-3.72-3.91v-.93c0-2.43,1.41-3.91,3.74-3.91s3.72,1.48,3.72,3.91ZM135.5,99.32v1.11c0,1.79.99,2.89,2.61,2.89s2.62-1.11,2.62-2.89v-1.11c0-1.79-.99-2.89-2.61-2.89s-2.62,1.11-2.62,2.89Z"/>
    <path class="cls-2" d="M144.3,95.37v8.7h-1.05v-8.7h1.05Z"/>
    <path class="cls-2" d="M146.26,98.12l1.86,4.85h.01l1.81-4.85h1.06l-2.34,5.87c-.61,1.46-1.11,2.05-2.47,2.05h-.45v-.83h.25c.81,0,1.19-.26,1.44-.88l.12-.29-2.4-5.92h1.1Z"/>
    <path class="cls-2" d="M152.9,104.06h-1.05v-5.95h.87l.1,1.23c.54-.84,1.19-1.37,2.21-1.37.92,0,1.55.48,1.79,1.27.52-.77,1.19-1.27,2.21-1.27,1.2,0,1.91.79,1.91,2.02v4.06h-1.04v-3.92c0-.75-.41-1.28-1.2-1.28-1.02,0-1.79.89-1.79,1.68v3.52h-1.05v-3.92c0-.75-.4-1.28-1.19-1.28-1.04,0-1.79.89-1.79,1.68v3.52Z"/>
    <path class="cls-2" d="M163.53,98.12l.09,1.23c.45-.75,1.06-1.38,2.21-1.38,1.5,0,2.4,1.19,2.4,2.77v.7c0,1.58-.94,2.77-2.42,2.77-1.11,0-1.7-.59-2.1-1.19v3.02h-1.05v-7.91h.87ZM163.69,100.85v.49c0,1.19.87,2.05,1.84,2.05,1.06,0,1.66-.88,1.66-1.97v-.64c0-1.11-.59-1.97-1.66-1.97-.96,0-1.84.84-1.84,2.05Z"/>
    <path class="cls-2" d="M170.73,95.75v1.09h-1.19v-1.09h1.19ZM170.65,98.12v5.95h-1.05v-5.95h1.05Z"/>
    <path class="cls-2" d="M176.29,102.03v-.03h.97v.1c0,1.09-.85,2.14-2.49,2.14-1.8,0-2.77-1.14-2.77-2.94v-.39c0-1.77,1.01-2.97,2.8-2.97,1.62,0,2.46,1.02,2.46,2.14v.1h-.97v-.03c0-.65-.41-1.36-1.5-1.36-1.17,0-1.75.83-1.75,2.06v.49c0,1.23.57,2.02,1.74,2.02,1.07,0,1.51-.69,1.51-1.35Z"/>
    <path class="cls-2" d="M183.39,104.18c-1.1,0-1.74-.58-1.74-1.58,0-.65.26-1.14.96-1.5.57-.29,1.5-.49,3.04-.59v-.38c0-.85-.44-1.32-1.39-1.32-.89,0-1.44.43-1.44,1.14v.09h-.95v-.13c0-1.08.79-1.96,2.41-1.96s2.37.8,2.37,2.19v2.43c0,.7.15.82.75.83v.7h-.4c-.77,0-1.24-.23-1.34-1.14-.51.77-1.25,1.22-2.29,1.22ZM183.69,103.42c1,0,1.96-.82,1.96-1.6v-.69c-1.16.09-1.92.23-2.36.45-.47.24-.61.54-.61.94,0,.55.3.89,1.01.89Z"/>
    <path class="cls-2" d="M189.5,98.12l.1,1.24c.55-.84,1.22-1.38,2.27-1.38,1.2,0,1.95.79,1.95,2.04v4.05h-1.05v-3.9c0-.78-.44-1.31-1.25-1.31-1.05,0-1.85.89-1.85,1.71v3.49h-1.05v-5.95h.87Z"/>
    <path class="cls-2" d="M200.76,95.37v8.7h-.87l-.09-1.23c-.44.74-1.06,1.38-2.21,1.38-1.49,0-2.4-1.19-2.4-2.77v-.7c0-1.58.95-2.78,2.42-2.78,1.11,0,1.7.59,2.1,1.21v-3.81h1.05ZM196.22,100.77v.64c0,1.11.6,1.97,1.66,1.97.96,0,1.84-.85,1.84-2.05v-.49c0-1.19-.87-2.05-1.84-2.05-1.06,0-1.66.87-1.66,1.97Z"/>
    <path class="cls-2" d="M206.58,95.69v5.28c0,1.5.82,2.3,2.22,2.3s2.24-.8,2.24-2.3v-5.28h1.07v5.28c0,2.09-1.22,3.27-3.34,3.27s-3.31-1.18-3.31-3.27v-5.28h1.11Z"/>
    <path class="cls-2" d="M214.56,102.67v1.4h-1.26v-1.4h1.26Z"/>
    <path class="cls-2" d="M222.09,98.03v.26h-1.11v-.23c0-.84-.54-1.63-2.1-1.63-1.21,0-1.97.58-1.97,1.41,0,.88.6,1.13,2.27,1.53,2.14.5,3.01,1.02,3.01,2.44,0,1.53-1.31,2.41-3.17,2.41-2.34,0-3.37-1.09-3.37-2.59v-.31h1.11v.24c0,1.06.7,1.76,2.3,1.76,1.21,0,2.02-.52,2.02-1.43s-.57-1.19-2.34-1.62c-2.02-.45-2.95-.96-2.95-2.36s1.22-2.38,3.12-2.38c2.25,0,3.17,1.14,3.17,2.5Z"/>
    <path class="cls-2" d="M224.52,102.67v1.4h-1.26v-1.4h1.26Z"/>
    <path class="cls-2" d="M231.31,95.69c1.84,0,2.75.91,2.75,2.36v.44c0,1.5-.92,2.39-2.77,2.39h-2.24v3.18h-1.1v-8.37h3.36ZM229.05,99.97h2.11c1.3,0,1.8-.57,1.8-1.51v-.36c0-.92-.51-1.5-1.8-1.5h-2.11v3.37Z"/>
    <path class="cls-2" d="M236.42,104.18c-1.1,0-1.74-.58-1.74-1.58,0-.65.26-1.14.96-1.5.57-.29,1.5-.49,3.04-.59v-.38c0-.85-.44-1.32-1.39-1.32-.89,0-1.44.43-1.44,1.14v.09h-.95v-.13c0-1.08.79-1.96,2.41-1.96s2.37.8,2.37,2.19v2.43c0,.7.15.82.75.83v.7h-.4c-.77,0-1.24-.23-1.34-1.14-.51.77-1.25,1.22-2.29,1.22ZM236.72,103.42c1,0,1.96-.82,1.96-1.6v-.69c-1.16.09-1.92.23-2.36.45-.47.24-.61.54-.61.94,0,.55.3.89,1.01.89Z"/>
    <path class="cls-2" d="M242.48,98.12l.09,1.51c.36-.85,1-1.6,2.11-1.6.16,0,.3.01.46.04v1.02c-.16-.03-.3-.05-.51-.05-1.09,0-1.97.87-1.97,1.85v3.18h-1.05v-5.95h.87Z"/>
    <path class="cls-2" d="M247.25,104.18c-1.1,0-1.74-.58-1.74-1.58,0-.65.26-1.14.96-1.5.57-.29,1.5-.49,3.04-.59v-.38c0-.85-.44-1.32-1.39-1.32-.89,0-1.44.43-1.44,1.14v.09h-.95v-.13c0-1.08.79-1.96,2.41-1.96s2.37.8,2.37,2.19v2.43c0,.7.15.82.75.83v.7h-.4c-.77,0-1.24-.23-1.34-1.14-.51.77-1.25,1.22-2.29,1.22ZM247.55,103.42c1,0,1.96-.82,1.96-1.6v-.69c-1.16.09-1.92.23-2.36.45-.47.24-.61.54-.61.94,0,.55.3.89,1.01.89Z"/>
    <path class="cls-2" d="M253.5,95.37v8.7h-1.05v-8.7h1.05Z"/>
    <path class="cls-2" d="M255.46,98.12l1.86,4.85h.01l1.81-4.85h1.06l-2.34,5.87c-.61,1.46-1.11,2.05-2.47,2.05h-.45v-.83h.25c.81,0,1.19-.26,1.44-.88l.12-.29-2.4-5.92h1.1Z"/>
    <path class="cls-2" d="M262.1,104.06h-1.05v-5.95h.87l.1,1.23c.54-.84,1.19-1.37,2.21-1.37.92,0,1.55.48,1.79,1.27.52-.77,1.19-1.27,2.21-1.27,1.2,0,1.91.79,1.91,2.02v4.06h-1.04v-3.92c0-.75-.41-1.28-1.2-1.28-1.02,0-1.79.89-1.79,1.68v3.52h-1.05v-3.92c0-.75-.4-1.28-1.19-1.28-1.04,0-1.79.89-1.79,1.68v3.52Z"/>
    <path class="cls-2" d="M272.73,98.12l.09,1.23c.45-.75,1.06-1.38,2.21-1.38,1.5,0,2.4,1.19,2.4,2.77v.7c0,1.58-.94,2.77-2.42,2.77-1.11,0-1.7-.59-2.1-1.19v3.02h-1.05v-7.91h.87ZM272.89,100.85v.49c0,1.19.87,2.05,1.84,2.05,1.06,0,1.66-.88,1.66-1.97v-.64c0-1.11-.59-1.97-1.66-1.97-.96,0-1.84.84-1.84,2.05Z"/>
    <path class="cls-2" d="M279.93,95.75v1.09h-1.19v-1.09h1.19ZM279.85,98.12v5.95h-1.05v-5.95h1.05Z"/>
    <path class="cls-2" d="M285.49,102.03v-.03h.97v.1c0,1.09-.85,2.14-2.49,2.14-1.8,0-2.77-1.14-2.77-2.94v-.39c0-1.77,1.01-2.97,2.8-2.97,1.62,0,2.46,1.02,2.46,2.14v.1h-.97v-.03c0-.65-.41-1.36-1.5-1.36-1.17,0-1.75.83-1.75,2.06v.49c0,1.23.57,2.02,1.74,2.02,1.07,0,1.51-.69,1.51-1.35Z"/>
    <path class="cls-2" d="M295.44,95.69v.96h-2.94v7.42h-1.11v-7.42h-2.94v-.96h6.98Z"/>
    <path class="cls-2" d="M296.87,104.24c-1.94,0-2.82-1.22-2.82-2.88v-.45c0-1.67,1-2.97,2.74-2.97s2.62,1.27,2.62,2.9v.47h-4.36v.14c0,1.11.51,1.94,1.85,1.94,1.01,0,1.56-.53,1.56-1.16v-.04h.94v.08c0,1.13-.96,1.97-2.52,1.97ZM295.05,100.66h3.37c-.04-1.09-.51-1.87-1.65-1.87-1.07,0-1.67.77-1.72,1.87Z"/>
    <path class="cls-2" d="M302.53,104.18c-1.1,0-1.74-.58-1.74-1.58,0-.65.26-1.14.96-1.5.57-.29,1.5-.49,3.04-.59v-.38c0-.85-.44-1.32-1.39-1.32-.89,0-1.44.43-1.44,1.14v.09h-.95v-.13c0-1.08.79-1.96,2.41-1.96s2.37.8,2.37,2.19v2.43c0,.7.15.82.75.83v.7h-.4c-.77,0-1.24-.23-1.34-1.14-.51.77-1.25,1.22-2.29,1.22ZM302.83,103.42c1,0,1.96-.82,1.96-1.6v-.69c-1.16.09-1.92.23-2.36.45-.47.24-.61.54-.61.94,0,.55.3.89,1.01.89Z"/>
    <path class="cls-2" d="M308.76,104.06h-1.05v-5.95h.87l.1,1.23c.54-.84,1.19-1.37,2.21-1.37.92,0,1.55.48,1.79,1.27.52-.77,1.19-1.27,2.21-1.27,1.2,0,1.91.79,1.91,2.02v4.06h-1.04v-3.92c0-.75-.41-1.28-1.2-1.28-1.02,0-1.79.89-1.79,1.68v3.52h-1.05v-3.92c0-.75-.4-1.28-1.19-1.28-1.04,0-1.79.89-1.79,1.68v3.52Z"/>
    <path class="cls-2" d="M318.03,102.22v-.18h.92v.14c0,.72.54,1.26,1.66,1.26.9,0,1.44-.38,1.44-.98,0-.54-.34-.78-1.64-1.01-1.55-.26-2.25-.72-2.25-1.73,0-.96.89-1.76,2.36-1.76,1.6,0,2.39.8,2.39,1.9v.14h-.91v-.09c0-.7-.51-1.16-1.5-1.16-.81,0-1.37.38-1.37.92s.44.77,1.65.99c1.57.26,2.25.69,2.25,1.75s-.9,1.82-2.42,1.82c-1.79,0-2.57-.88-2.57-2.01Z"/>
  </g>
  <g id="Logos">
    <path id="Divider" class="cls-2" d="M141.42,77.26c-.37,0-.67-.29-.67-.65V.65c0-.36.3-.65.67-.65s.67.29.67.65v75.95c0,.36-.3.65-.67.65Z"/>
    <g id="U.S._Paralympic_Team_Logo" data-name="U.S. Paralympic Team Logo">
      <g>
        <polygon class="cls-6" points="310.07 1 245.51 1 244.4 1 244.4 2.1 244.4 43.24 244.4 44.35 245.51 44.35 310.07 44.35 311.18 44.35 311.18 43.24 311.18 2.1 311.18 1 310.07 1"/>
        <path class="cls-4" d="M310.07,5.27h-37.75v-3.16h37.75v3.16ZM310.07,8.43h-37.75v3.16h37.75v-3.16ZM310.07,14.73h-37.75v3.16h37.75v-3.16ZM310.07,21.07h-37.75v3.16h37.75v-3.16ZM310.07,27.4h-64.56v3.16h64.56v-3.16ZM310.07,33.7h-64.56v3.16h64.56v-3.16ZM310.07,40.08h-64.56v3.16h64.56v-3.16Z"/>
        <rect class="cls-9" x="245.51" y="2.1" width="26.81" height="22.12"/>
        <path class="cls-6" d="M249.65,6.13h1.09l-.88.67.34,1.07-.87-.66-.87.66.34-1.07-.88-.67h1.08l.33-1.04.32,1.04ZM249.33,11.76l-.33,1.05h-1.08l.89.67-.35,1.07.87-.66.87.66-.34-1.07.88-.67h-1.09l-.32-1.05ZM249.33,18.44l-.33,1.04h-1.08l.88.67-.34,1.07.87-.66.87.66-.34-1.07.88-.67h-1.09l-.32-1.04ZM258.98,5.09l-.33,1.04h-1.08l.88.67-.34,1.07.87-.66.87.66-.34-1.07.88-.67h-1.1l-.32-1.04ZM258.97,11.76l-.32,1.05h-1.09l.89.67-.35,1.07.87-.66.88.66-.34-1.07.88-.67h-1.09l-.32-1.05ZM258.98,18.44l-.33,1.04h-1.08l.88.67-.34,1.07.87-.66.87.66-.34-1.07.88-.67h-1.1l-.32-1.04ZM268.62,5.09l-.33,1.04h-1.09l.89.67-.34,1.08.87-.66.88.66-.35-1.08.87-.67h-1.08l-.32-1.04ZM268.62,11.76l-.32,1.05h-1.09l.89.67-.35,1.07.87-.66.88.66-.35-1.07.88-.67h-1.09l-.32-1.05ZM268.62,18.43l-.33,1.05h-1.09l.89.67-.34,1.07.87-.66.88.66-.35-1.07.87-.67h-1.08l-.32-1.05ZM254.15,8.43l-.33,1.05h-1.08l.89.67-.35,1.07.87-.66.87.66-.34-1.07.88-.67h-1.09l-.32-1.05ZM254.15,15.1l-.34,1.04h-1.08l.88.67-.34,1.07.87-.66.87.66-.34-1.07.88-.67h-1.1l-.31-1.04ZM263.8,8.43l-.33,1.05h-1.08l.89.67-.35,1.07.87-.66.87.66-.34-1.07.88-.67h-1.09l-.32-1.05ZM263.8,15.1l-.34,1.04h-1.08l.88.67-.34,1.07.87-.66.87.66-.34-1.07.88-.67h-1.1l-.31-1.04Z"/>
      </g>
      <g>
        <path class="cls-8" d="M275.57,48.06c-3.2-.74-7.58.07-11.71,2.46-6.46,3.73-9.89,9.9-7.65,13.78,1.43,2.48,4.83,3.42,8.78,2.81-1.81-.42-3.24-1.33-4.05-2.73-2.24-3.88,1.19-10.05,7.65-13.78,2.33-1.35,4.74-2.19,6.98-2.54"/>
        <path class="cls-5" d="M275.63,63.36c.96,3.14,3.85,6.52,7.98,8.91,6.46,3.73,13.52,3.61,15.76-.26,1.43-2.48.55-5.89-1.96-9.01.54,1.77.47,3.47-.33,4.87-2.24,3.88-9.29,4-15.76.26-2.33-1.35-4.27-3.01-5.69-4.77"/>
        <path class="cls-10" d="M271.25,55.75c-2.24,2.41-3.72,6.6-3.72,11.37,0,7.46,3.63,13.51,8.11,13.51,2.86,0,5.38-2.47,6.82-6.2-1.26,1.36-2.77,2.15-4.39,2.15-4.48,0-8.11-6.05-8.11-13.52,0-2.69.47-5.2,1.29-7.31"/>
      </g>
    </g>
    <g id="U.S._Olympic_Team_Logo" data-name="U.S. Olympic Team Logo">
      <g>
        <path class="cls-10" d="M182.98,58.05c0-5.05-4.09-9.14-9.13-9.14s-9.14,4.09-9.14,9.14,4.09,9.14,9.14,9.14c.27,0,.53-.01.79-.03-.02-.24-.03-.48-.03-.73,0-.27.01-.54.03-.8-.26.03-.53.04-.8.04-4.21,0-7.61-3.41-7.61-7.61s3.41-7.61,7.61-7.61,7.61,3.41,7.61,7.61c0,3.38-2.2,6.24-5.24,7.24-.06.37-.08.75-.08,1.14,0,.16,0,.31.01.47,3.93-1.02,6.84-4.59,6.84-8.85"/>
        <path class="cls-8" d="M222.57,58.05c0,5.05-4.09,9.14-9.14,9.14-4.78,0-8.69-3.66-9.1-8.33.54.06,1.07.17,1.57.33.55,3.67,3.71,6.48,7.53,6.48,4.2,0,7.61-3.41,7.61-7.61s-3.41-7.61-7.61-7.61-7.36,3.16-7.6,7.14c-.49-.13-.99-.21-1.51-.26.37-4.7,4.31-8.41,9.11-8.41,5.05,0,9.14,4.09,9.14,9.14"/>
        <path class="cls-5" d="M211.14,66.9c-.24,3.99-3.55,7.14-7.6,7.14s-7.61-3.41-7.61-7.61c0-3.38,2.2-6.24,5.25-7.24.05-.37.08-.75.08-1.14,0-.16,0-.31-.01-.47-3.93,1.02-6.84,4.59-6.84,8.84,0,5.05,4.09,9.14,9.14,9.14s8.74-3.7,9.11-8.41c-.52-.04-1.02-.13-1.51-.26M203.53,58.81c3.82,0,6.98,2.81,7.53,6.48.5.16,1.03.28,1.57.33-.41-4.67-4.32-8.33-9.1-8.33-.26,0-.53.01-.79.03.02.24.03.48.03.73,0,.27-.01.54-.03.8.26-.03.52-.04.79-.04"/>
        <path class="cls-7" d="M192.85,67.16c-.37,4.71-4.31,8.41-9.11,8.41-5.05,0-9.14-4.09-9.14-9.14,0-4.25,2.91-7.83,6.84-8.85.01.16.01.31.01.47,0,.39-.03.77-.08,1.14-3.05,1-5.25,3.86-5.25,7.24,0,4.21,3.41,7.61,7.61,7.61s7.36-3.16,7.6-7.14c.49.13.99.21,1.51.26M182.94,58.86c.02-.26.03-.53.03-.8,0-.24,0-.49-.03-.73.26-.02.52-.03.79-.03,4.78,0,8.7,3.66,9.1,8.33-.54-.06-1.07-.17-1.57-.33-.55-3.67-3.71-6.48-7.53-6.48-.27,0-.53.01-.8.04"/>
        <path class="cls-1" d="M193.64,65.67c-3.82,0-6.98-2.81-7.53-6.48-.5-.16-1.03-.28-1.57-.33.41,4.67,4.33,8.33,9.1,8.33.27,0,.53-.01.79-.03-.02-.24-.03-.48-.03-.73,0-.27.01-.54.04-.8-.26.03-.53.04-.8.04M193.64,48.92c-4.8,0-8.74,3.7-9.11,8.41.52.04,1.02.13,1.51.26.24-3.99,3.55-7.14,7.6-7.14s7.61,3.41,7.61,7.61c0,3.38-2.2,6.24-5.25,7.24-.06.37-.09.75-.09,1.14,0,.16,0,.32.02.47,3.93-1.02,6.84-4.59,6.84-8.85,0-5.05-4.09-9.14-9.14-9.14"/>
      </g>
      <g>
        <polygon class="cls-6" points="225.92 1 161.36 1 160.25 1 160.25 2.1 160.25 43.24 160.25 44.35 161.36 44.35 225.92 44.35 227.03 44.35 227.03 43.24 227.03 2.1 227.03 1 225.92 1"/>
        <path class="cls-4" d="M225.92,5.27h-37.75v-3.16h37.75v3.16ZM225.92,8.43h-37.75v3.16h37.75v-3.16ZM225.92,14.73h-37.75v3.16h37.75v-3.16ZM225.92,21.07h-37.75v3.16h37.75v-3.16ZM225.92,27.4h-64.56v3.16h64.56v-3.16ZM225.92,33.7h-64.56v3.16h64.56v-3.16ZM225.92,40.08h-64.56v3.16h64.56v-3.16Z"/>
        <rect class="cls-9" x="161.36" y="2.1" width="26.81" height="22.12"/>
        <path class="cls-6" d="M165.5,6.13h1.09l-.88.67.34,1.07-.87-.66-.87.66.34-1.07-.88-.67h1.08l.33-1.04.32,1.04ZM165.18,11.76l-.33,1.05h-1.08l.89.67-.35,1.07.87-.66.87.66-.34-1.07.88-.67h-1.09l-.32-1.05ZM165.18,18.44l-.33,1.04h-1.08l.88.67-.34,1.07.87-.66.87.66-.34-1.07.88-.67h-1.09l-.32-1.04ZM174.82,5.09l-.33,1.04h-1.08l.88.67-.34,1.07.87-.66.87.66-.34-1.07.88-.67h-1.1l-.32-1.04ZM174.82,11.76l-.32,1.05h-1.09l.89.67-.35,1.07.87-.66.88.66-.34-1.07.88-.67h-1.09l-.32-1.05ZM174.82,18.44l-.33,1.04h-1.08l.88.67-.34,1.07.87-.66.87.66-.34-1.07.88-.67h-1.1l-.32-1.04ZM184.47,5.09l-.33,1.04h-1.09l.89.67-.34,1.08.87-.66.88.66-.35-1.08.87-.67h-1.08l-.32-1.04ZM184.47,11.76l-.32,1.05h-1.09l.89.67-.35,1.07.87-.66.88.66-.35-1.07.88-.67h-1.09l-.32-1.05ZM184.47,18.43l-.33,1.05h-1.09l.89.67-.34,1.07.87-.66.88.66-.35-1.07.87-.67h-1.08l-.32-1.05ZM170,8.43l-.33,1.05h-1.08l.89.67-.35,1.07.87-.66.87.66-.34-1.07.88-.67h-1.09l-.32-1.05ZM170,15.1l-.34,1.04h-1.08l.88.67-.34,1.07.87-.66.87.66-.34-1.07.88-.67h-1.1l-.31-1.04ZM179.65,8.43l-.33,1.05h-1.08l.89.67-.35,1.07.87-.66.87.66-.34-1.07.88-.67h-1.09l-.32-1.05ZM179.65,15.1l-.34,1.04h-1.08l.88.67-.34,1.07.87-.66.87.66-.34-1.07.88-.67h-1.1l-.31-1.04Z"/>
      </g>
    </g>
    <path id="Lilly_Logo" data-name="Lilly Logo" class="cls-3" d="M60.87,34.1c1.48,0,2.67,1.2,2.67,2.67s-1.19,2.67-2.67,2.67-2.67-1.2-2.67-2.67,1.2-2.67,2.67-2.67h0ZM121.35,43.21c-4.2,4.19-17.31,15.7-20.78,25.38l-4.29-1.11c1.41-4.01,5.63-10.25,10.34-15.06-1,.38-2.05.52-2.89.52-1.27,0-2.26-.38-2.86-1.11-.43-.52-.64-1.2-.64-2,0-.17.01-.35.04-.55-4.14,2.52-7.47,3.66-10.73,3.66-2.54,0-4.67-1.11-5.66-3.04-4.11,2.04-8.05,3.04-11.34,3.04-3.07,0-5.54-1.21-6.67-3.43-4.15,2.34-7.68,3.43-10.5,3.43-1.62,0-2.9-.45-3.73-1.3-.6-.63-.93-1.47-.97-2.44-2.66,1.76-6.55,3.74-10.54,3.74s-6.81-1.4-8.94-2.79c-3.38,1.88-7.11,2.79-11.05,2.79-2.98,0-7.78-1.24-7.78-5.51,0-3.45,3.6-5.79,8.41-5.79,4.09,0,8.03,1.72,10.5,3.52,2.35-1.87,4.81-4.49,7.72-8.18-.64.04-1.26.05-1.88.05-5.56,0-10.21-1.64-12.75-4.51-1.37-1.55-2.02-3.37-2.02-5.33,0-7.74,9.77-13.75,18.33-14.64.57,1.28,1.07,2.27,1.59,3.44-8.45.98-15.48,5.98-15.48,10.87,0,3.22,3.61,6.44,11.27,6.44,1.31,0,2.63-.13,3.93-.3,6.76-9.34,17.13-23.85,26.05-23.85,2.64,0,4.02,1.6,4.02,3.75,0,4.42-3.8,9.17-6.27,11.65-3.89,3.91-10.92,9.72-20.73,11.65-3.82,5.32-6.96,8.84-10.1,11.39,1.9,1.03,3.69,1.66,5.81,1.66,5.28,0,10.41-4.84,14.41-8.94l.14-.14,3.12,2.44-.15.17c-1.77,2.03-3.4,4.18-3.4,5.38,0,.91.77,1.09,1.43,1.09,2.02,0,5.14-1.31,8.81-3.57v-.03c.41-9.07,12.78-22.96,20.3-22.96,2.12,0,3.34,1.06,3.34,2.91,0,4.55-7.84,14.31-19.25,21.77h0c.59,1.28,1.95,1.89,4.25,1.89,1.8,0,5.32-.8,9.51-2.99.49-4.7,3.15-9.75,6.52-13.35,3.39-3.6,7.19-5.95,10.47-5.95,2.03,0,3.22,1.11,3.22,2.87,0,3.97-4.6,10.75-15.7,17.86.49.95,1.45,1.55,2.93,1.55,3.3,0,9.12-3.53,13.66-7.87l3.26,2.53c-1.39,1.69-2.79,3.54-2.75,4.61.01.35.25.58.79.58,3.34,0,8.6-4.41,12.55-8.31l3.11,2.42h0ZM48.47,31.36c4.89-1.57,9.54-4.85,13-8.28,3.2-3.17,5.77-6.94,5.77-8.81,0-.43-.31-.68-.69-.68-1.48,0-4.29,1.97-8.08,5.76-2.95,2.96-6.38,6.99-10,12.01h0ZM27.55,47.56c-1.8-1.25-4.59-2.34-7.08-2.34s-3.96.95-3.96,2.15c0,1.37,1.88,1.98,3.97,1.98,2.54,0,4.86-.69,7.07-1.78h0ZM69.48,43.02c6.83-5.16,14.01-12.68,14.77-15.76.02-.1.05-.2.04-.29-.01-.2-.12-.38-.38-.38-2.16,0-12.17,9.24-14.44,16.44h0ZM87.59,43.85c.63-.45,1.32-.98,1.95-1.48,4.91-3.93,8.65-8.23,9.39-10.61.02-.08.09-.3.09-.47,0-.25-.12-.42-.34-.42-2.25,0-9.48,7.2-11.22,13.03v.02l.13-.07h0Z"/>
  </g>
</svg>