<svg viewBox="0 0 16 16" xmlns="http://www.w3.org/2000/svg" width="16" height="16">
  <path d="m7.99600625 0c4.41997155 0 8.00399375 3.5800097 8.00399375 7.99998125s-3.5839847 7.99998125-8.00399375 7.99998125c-4.42000904 0-7.99600625-3.5800097-7.99600625-7.99998125s3.57599721-7.99998125 7.99600625-7.99998125zm-.49054297 10.6749917c-.27614238 0-.5.2238576-.5.5v1.3351544c0 .2761424.22385762.5.5.5h1.00156093c.27614238 0 .5-.2238576.5-.5v-1.3351544c0-.2761424-.22385762-.5-.5-.5zm0-7.6726503c-.27614238 0-.5.22385763-.5.5v5.3382763c0 .27614238.22385762.5.5.5h1.00156093c.27614238 0 .5-.22385762.5-.5v-5.3382763c0-.27614237-.22385762-.5-.5-.5z"></path>
</svg>